<svg color="#6772E5" xmlns="http://www.w3.org/2000/svg" viewBox="0 0 96 40"><path fill="currentColor" fill-rule="evenodd" d="M96 20.808c0-6.84-3.252-12.237-9.469-12.237-6.243 0-10.02 5.397-10.02 12.183 0 8.042 4.46 12.103 10.86 12.103 3.12 0 5.481-.721 7.265-1.736v-5.344c-1.784.909-3.83 1.47-6.426 1.47-2.545 0-4.8-.909-5.089-4.061h12.827c0-.348.052-1.737.052-2.378zM83.042 18.27c0-3.02 1.81-4.275 3.463-4.275 1.6 0 3.305 1.256 3.305 4.275h-6.768zm-16.925-9.7c4.594 0 8.924 4.202 8.95 11.912 0 8.43-4.278 12.258-8.976 12.258-2.31 0-3.7-.984-4.646-1.675l-.026 7.525L54.857 40V8.997h5.775l.34 1.648c.92-.85 2.573-2.074 5.145-2.074zm-1.575 18.32c2.415 0 4.043-2.658 4.043-6.221 0-3.484-1.654-6.196-4.043-6.196-1.496 0-2.44.532-3.123 1.303l.026 9.865c.63.691 1.549 1.25 3.097 1.25zM45.474 7.143v-5.67L52.692 0v5.642l-7.218 1.5zm0 1.428h7.218V31.43h-7.218V8.57zm-7.625 2.246c1.548-2.876 4.62-2.29 5.46-1.97v6.123c-.814-.293-3.44-.665-4.988 1.385v15.788H31.76V8.847h5.67l.42 1.97zm-13.284-7.96l-.027 5.725h5.056v5.62h-5.056v9.366c0 3.905 4.204 2.691 5.056 2.348v5.356c-.878.475-2.475.87-4.657.87-3.938 0-6.892-2.875-6.892-6.78l.027-21.133 6.493-1.372zM6.615 15.804c0 2.989 9.96 1.574 9.987 9.527 0 4.777-3.74 7.526-9.177 7.526-2.248 0-4.706-.454-7.137-1.521v-6.352c2.196 1.228 4.967 2.135 7.137 2.135 1.464 0 2.51-.4 2.51-1.628C9.935 22.316 0 23.49 0 16.124 0 11.4 3.53 8.571 8.837 8.571c2.17 0 4.313.347 6.483 1.228v6.272c-1.987-1.095-4.496-1.708-6.483-1.708-1.386 0-2.223.4-2.223 1.44z"/></svg>